<svg width="79" height="82" viewBox="0 0 79 82" fill="none" xmlns="http://www.w3.org/2000/svg">
<g clip-path="url(#clip0_50_193)">
<path d="M37.0264 16.8154C33.9012 17.1042 30.9952 18.1473 27.9855 18.6748C27.0993 18.8299 26.199 18.9063 25.301 18.997C24.4242 19.0877 23.6583 18.997 22.9677 18.2523C22.2818 17.5124 21.3297 17.5291 20.4836 18.0852C19.7341 18.5793 19.357 19.2882 19.5903 20.2286C19.8543 21.286 20.625 21.6893 21.6031 21.718C24.1226 21.7896 26.6043 21.3456 29.1026 21.1165C30.9646 20.947 32.8359 20.5222 34.6978 21.1857C36.4254 21.7991 36.72 22.193 36.7177 23.9879C36.7083 30.9407 36.687 37.8936 36.7059 44.8489C36.713 47.4028 36.4679 49.9209 35.9258 52.4152C35.3837 54.907 33.7504 56.3559 31.2662 56.4776C30.3636 56.5229 29.6306 56.7783 29.3737 57.7474C29.0036 59.1365 29.3053 59.5256 30.7218 59.5256C32.8807 59.528 35.0372 59.5375 37.1961 59.516C37.8042 59.5113 38.1342 59.6354 38.113 60.3658C37.915 67.512 37.7453 74.6606 37.5662 81.8091C37.5662 81.8426 37.5355 81.876 37.4766 82.0001C35.1504 81.0883 32.9325 79.9331 30.7383 78.7277C22.6778 74.3049 15.527 68.7746 10.1958 61.0985C5.41607 54.2172 3.11576 46.3908 1.83598 38.1896C0.419496 29.1387 0.16024 20.009 -2.70419e-05 10.8698C-0.0141683 10.0057 0.179095 9.52838 1.05349 9.19661C9.17763 6.10803 17.4455 3.5374 25.968 1.8332C29.739 1.07895 33.5642 0.677964 37.3517 0.0335163C38.0988 -0.0929864 38.3062 0.148085 38.2944 0.89278C38.2449 4.11024 38.2449 7.33009 38.2237 10.5476C38.2237 10.9032 38.1978 11.2039 37.8773 11.4928C35.9988 13.1874 35.8456 14.1302 36.9887 16.4693C37.0194 16.5314 37.0052 16.6173 37.0241 16.8154H37.0264ZM22.1687 36.6596V36.6668C19.1896 36.6668 16.2082 36.6763 13.2291 36.6596C12.581 36.6549 12.3099 36.7265 12.5857 37.5165C13.8089 41.0085 16.22 42.9752 19.8189 43.4717C21.3014 43.6769 22.7886 43.6435 24.2758 43.4717C27.8747 43.0564 30.2221 41.0753 31.4689 37.6669C31.7423 36.9222 31.6386 36.6262 30.7572 36.6429C27.8959 36.6907 25.0323 36.6596 22.1687 36.6596ZM21.4051 24.1693C21.4617 24.1979 21.5206 24.2242 21.5771 24.2528C21.5771 27.7853 21.5701 31.3179 21.5889 34.8504C21.5889 35.2275 21.3367 35.8553 22.0202 35.8767C22.8098 35.9006 22.5175 35.2108 22.527 34.8074C22.5552 33.3777 22.527 31.948 22.5246 30.5183C22.5222 28.4011 22.5246 26.284 22.5246 23.9067C22.7815 24.2552 22.8828 24.365 22.9512 24.4915C24.8626 28.0002 26.7717 31.5088 28.6713 35.0246C28.94 35.5235 29.2134 36.2133 29.8403 35.8433C30.4225 35.4996 29.7508 35.0223 29.5693 34.6762C27.5306 30.7904 25.4424 26.9285 23.4037 23.0427C23.1303 22.5224 22.7815 22.3887 22.2748 22.4317C21.7563 22.477 21.1553 22.2526 20.8512 22.952C20.6297 23.458 20.3586 23.9425 20.097 24.4294C18.2021 27.9453 16.2977 31.4587 14.4146 34.9817C14.2944 35.2084 13.9102 35.5378 14.3274 35.7622C14.6149 35.9173 15.0297 35.8934 15.2372 35.4781C15.3432 35.2657 15.4516 35.0533 15.5648 34.8456C17.5139 31.2868 19.463 27.7257 21.4122 24.1669L21.4051 24.1693Z" fill="url(#paint0_linear_50_193)"/>
<path d="M41.3819 16.7938C42.5934 14.1778 42.4849 13.5549 40.4462 11.3948C40.22 11.1537 40.2106 10.915 40.2106 10.6405C40.2082 8.53295 40.2153 6.42537 40.4604 4.33211C40.6702 2.53004 41.5422 1.4679 43.3075 1.15522C47.2741 0.453489 51.2124 0.618181 54.175 3.7354C55.608 5.24388 56.909 5.62578 58.8652 5.5494C63.3668 5.37277 66.921 8.09616 68.4247 12.55C68.724 13.4331 69.1317 13.9893 70.0274 14.3712C74.0128 16.0658 75.7663 19.7177 74.6515 23.9878C74.4111 24.9067 74.6233 25.4246 75.2738 26.0381C78.9081 29.4656 80.0771 34.6212 77.9134 38.5952C77.138 40.0202 77.0296 41.037 77.6424 42.567C78.868 45.6364 78.7949 50.3958 74.9815 53.1908C74.3121 53.6801 74.3781 54.3365 74.3239 54.9929C73.895 60.1723 71.7667 64.4257 67.6516 67.6026C66.1998 68.7244 64.5735 69.5049 62.8295 70.0085C62.2567 70.1732 61.8302 70.4214 61.5308 70.925C58.4245 76.1665 53.5175 78.6656 47.9034 80.0619C46.9559 80.2982 45.9731 80.4199 44.9997 80.4939C42.6971 80.6705 41.0567 79.4604 40.4769 77.2024C40.2671 76.3933 40.1729 75.5627 40.2153 74.7225C40.4486 70.0371 40.425 65.347 40.3991 60.6592C40.3944 59.7904 40.5971 59.4801 41.5021 59.504C43.6186 59.5613 45.7398 59.5326 47.8563 59.4777C48.3088 59.4658 49.0724 59.831 49.1337 58.9097C49.1902 58.0743 49.2209 57.1911 48.2899 56.7496C48.0142 56.6183 47.6889 56.5682 47.3802 56.5371C44.6745 56.2555 43.3004 55.1194 42.5392 52.4724C41.9099 50.2812 41.6907 48.0209 41.6789 45.7582C41.6412 38.3279 41.6789 30.8977 41.6459 23.4674C41.6412 22.5199 42.0607 22.0067 42.8031 21.5961C44.2479 20.7966 45.7869 20.7154 47.3778 20.8849C50.0293 21.1689 52.6808 21.4482 55.3346 21.6988C55.9568 21.7585 56.5932 21.7394 57.2154 21.6797C58.1134 21.5914 58.7804 21.1116 59.0066 20.2046C59.1905 19.4695 59.0208 18.7701 58.3938 18.276C57.6467 17.6889 56.638 17.412 55.9945 18.0302C54.3141 19.6461 52.4427 18.9706 50.6562 18.6723C48.2263 18.2665 45.8388 17.5982 43.4253 17.0707C42.7819 16.9299 42.1173 16.8917 41.3796 16.7938H41.3819ZM56.4824 36.65V36.6643C53.6235 36.6643 50.7623 36.6977 47.9034 36.6452C46.9276 36.6261 46.7862 36.8863 47.1091 37.7885C48.4455 41.5335 51.2077 43.1756 54.9693 43.5408C60.3854 44.0683 64.0527 42.1087 65.8557 37.6548C66.1786 36.8576 66.0466 36.6237 65.1816 36.6333C62.2827 36.6714 59.3837 36.6476 56.4848 36.6476L56.4824 36.65ZM63.7156 35.9864C64.4581 35.9649 64.4934 35.7382 64.1752 35.151C61.9692 31.0839 59.7655 27.0119 57.5925 22.9256C57.2319 22.2478 56.678 22.4697 56.1619 22.4315C55.6693 22.3957 55.311 22.4912 55.0329 23.0306C53.1309 26.7231 51.1818 30.3917 49.2468 34.0674C49.0441 34.4517 48.8249 34.8288 48.6387 35.2226C48.5657 35.3778 48.363 35.5878 48.5751 35.7358C48.7165 35.8337 48.9475 35.8265 49.136 35.8193C49.5296 35.805 49.6074 35.4422 49.7512 35.1749C50.7717 33.2988 51.7828 31.4156 52.801 29.5372C53.772 27.7447 54.7454 25.9521 55.7188 24.1596C55.7848 24.1787 55.8531 24.1978 55.9191 24.2169C55.9191 24.5176 55.9191 24.816 55.9191 25.1167C55.9191 28.3748 55.9073 31.6304 55.9238 34.8885C55.9238 35.268 55.6999 35.8957 56.3999 35.8742C57.0834 35.8551 56.843 35.2322 56.8454 34.8551C56.8501 31.7164 56.8265 28.58 56.8124 25.4414C56.8124 24.9926 56.8124 24.5439 56.8124 24.0976M55.0424 48.355C54.076 48.3073 53.171 48.5746 52.2848 48.8969C51.9171 49.0305 51.2996 49.1021 51.5047 49.7132C51.7333 50.391 52.2306 49.928 52.5818 49.8015C55.8178 48.6415 58.3373 49.5246 60.1356 52.4867C60.7931 53.5703 61.4436 54.6539 62.3345 55.5657C64.6278 57.9191 67.9981 58.3774 70.6095 56.6732C70.9135 56.4751 71.4415 56.3176 71.1893 55.8068C70.9159 55.2506 70.5294 55.6564 70.2041 55.8283C67.0671 57.4823 64.2153 56.8069 62.1766 53.8949C61.519 52.9569 60.9605 51.9496 60.2864 51.0259C58.9901 49.2501 57.213 48.3837 55.04 48.355H55.0424ZM66.089 45.3763C65.7048 45.35 65.3207 45.307 64.9365 45.2617C64.6914 45.2307 64.3991 45.2187 64.2483 45.4168C63.5695 46.3071 65.8038 46.2236 66.0655 46.362C66.5392 46.6103 66.6523 47.2261 66.7984 47.7464C67.6917 50.9686 71.2741 52.1072 74.1566 50.9066C74.4677 50.7777 74.8849 50.6321 74.6586 50.15C74.4771 49.7657 74.1495 49.8826 73.8455 50.0163C73.6664 50.0951 73.4849 50.1738 73.2963 50.2287C70.8452 50.9424 68.1466 49.7967 67.5574 47.1401C67.5267 47.0041 67.5031 46.8609 67.5409 46.7248C67.6469 46.3429 68.1301 46.2594 68.519 46.2045C70.0179 45.9897 71.4108 45.1018 72.2522 43.8272C72.3371 43.6983 72.4196 43.5503 72.3984 43.3952C72.3583 43.1064 71.9647 42.9966 71.7031 43.1207C71.4415 43.2448 71.2765 43.505 71.095 43.7341C70.4045 44.6077 69.3321 45.1089 68.2408 45.2999C67.5291 45.424 66.8079 45.4288 66.0867 45.3787L66.089 45.3763ZM66.4048 22.7824C65.8463 22.7562 65.1581 22.8994 64.4911 23.1404C63.6732 23.4388 62.9167 23.8493 62.3463 24.5367C62.12 24.8088 61.8443 25.1478 62.153 25.4795C62.5231 25.8758 62.7753 25.4628 63.0039 25.217C63.4399 24.7468 63.9466 24.3888 64.5335 24.1429C67.687 22.823 70.864 24.606 71.6418 28.1265C71.7219 28.4893 71.6277 29.067 72.191 28.9882C72.8485 28.8951 72.561 28.3223 72.5044 27.9308C72.0566 24.8709 69.6903 22.8278 66.4048 22.7824ZM54.9481 61.9839C54.9104 66.032 57.8235 68.5979 61.6416 68.0155C62.0211 67.9582 62.5372 67.9821 62.4995 67.4355C62.4594 66.8435 61.9645 67.0082 61.585 67.0584C61.4695 67.0727 61.3541 67.1013 61.2362 67.1156C58.2524 67.4474 56.0322 65.495 55.9262 62.4589C55.8979 61.6545 56.037 60.8812 56.2255 60.1055C56.3104 59.7594 56.6615 59.2892 56.077 59.0982C55.4171 58.8834 55.436 59.547 55.311 59.9002C55.0612 60.6115 54.9198 61.3562 54.9504 61.9863L54.9481 61.9839ZM48.9121 63.0437C48.9286 62.8933 49.0111 62.5902 48.6576 62.4661C48.2593 62.3252 48.0778 62.5782 47.9765 62.9124C46.8923 66.4712 47.5027 70.7866 50.866 73.1782C51.1747 73.3978 51.5754 73.7463 51.8912 73.2976C52.2283 72.8178 51.7145 72.6292 51.4175 72.4025C49.8054 71.1733 48.8509 69.5765 48.5775 67.5262C48.3771 66.0344 48.5892 64.6023 48.9121 63.0437ZM61.1184 18.0087C63.2207 18.066 65.1486 17.5815 66.7324 16.0897C66.9917 15.8462 67.4631 15.5861 67.0365 15.135C66.6735 14.7531 66.4048 15.1278 66.1574 15.3569C65.1416 16.3021 63.9183 16.7413 62.5749 16.9585C60.8285 17.2425 59.1598 16.9155 57.4911 16.462C57.1871 16.3785 56.7582 16.104 56.5955 16.6172C56.44 17.1041 56.8854 17.1805 57.2154 17.2903C58.4834 17.7104 59.7797 17.9872 61.1207 18.0063L61.1184 18.0087ZM48.5044 10.4186C48.5162 12.4259 49.2751 14.4165 51.2337 15.82C51.5495 16.0467 51.9549 16.3236 52.2613 15.8749C52.5771 15.4142 52.0751 15.2877 51.8134 15.1015C50.5219 14.1874 49.8195 12.9271 49.5556 11.3614C49.3222 9.98893 49.5697 8.68332 49.8973 7.37295C49.9869 7.01731 50.331 6.54233 49.7842 6.35377C49.1572 6.13895 49.1596 6.7834 49.0276 7.15336C48.6929 8.09139 48.5633 9.07477 48.5068 10.4162L48.5044 10.4186ZM66.3459 37.304C67.1708 37.1751 67.621 36.5736 68.2078 36.2179C69.7705 35.2728 71.3684 34.6689 73.1997 35.3969C73.5509 35.5353 74.0364 36.0151 74.2697 35.3587C74.4701 34.7906 73.8408 34.6975 73.4849 34.5328C71.5145 33.6211 68.0782 34.4851 66.7277 36.2156C66.5109 36.4948 66.3223 36.7908 66.3459 37.3016V37.304Z" fill="url(#paint1_linear_50_193)"/>
<path d="M61.585 32.4897C62.0823 33.4301 62.582 34.3705 63.2183 35.5711C61.6864 34.8718 61.4648 33.7762 61.585 32.4897Z" fill="url(#paint2_linear_50_193)"/>
</g>
<defs>
<linearGradient id="paint0_linear_50_193" x1="-0.555625" y1="1.18966" x2="62.3212" y2="30.5549" gradientUnits="userSpaceOnUse">
<stop stop-color="#0F49BD"/>
<stop offset="1" stop-color="#1D4ED8"/>
</linearGradient>
<linearGradient id="paint1_linear_50_193" x1="39.6432" y1="1.96869" x2="102.368" y2="32.5007" gradientUnits="userSpaceOnUse">
<stop stop-color="#0F49BD"/>
<stop offset="1" stop-color="#1D4ED8"/>
</linearGradient>
<linearGradient id="paint2_linear_50_193" x1="61.5332" y1="32.5343" x2="64.1073" y2="33.922" gradientUnits="userSpaceOnUse">
<stop stop-color="#0F49BD"/>
<stop offset="1" stop-color="#1D4ED8"/>
</linearGradient>
<clipPath id="clip0_50_193">
<rect width="79" height="82" fill="white"/>
</clipPath>
</defs>
</svg>
